<?xml version="1.0" encoding="utf-8"?>
<!-- Generator: Adobe Illustrator 24.0.2, SVG Export Plug-In . SVG Version: 6.00 Build 0)  -->
<svg version="1.1" id="Layer_1" xmlns="http://www.w3.org/2000/svg" xmlns:xlink="http://www.w3.org/1999/xlink" x="0px" y="0px"
	 viewBox="0 0 213.8617 269.7896" enable-background="new 0 0 213.8617 269.7896" xml:space="preserve">
<g>
	<path d="M66.0696,171.264c-2.8111,0-5.2339-0.3606-7.1744-1.0282c0.0549,1.1481,0.1091,2.2965,0.177,3.4559
		c0.2485,4.252,3.7739,7.5332,7.979,7.5332c0.1572,0,0.3154-0.0039,0.4746-0.0137c0.6388-0.0374,1.252-0.1565,1.8391-0.333
		c0.1418-3.1345,0.3365-6.4451,0.5741-9.8716C68.2687,171.2273,66.8275,171.264,66.0696,171.264z"/>
	<path d="M146.5641,171.0066c0.2376,3.4264,0.4323,6.7371,0.574,9.8715c0.5873,0.1768,1.2008,0.2959,1.8398,0.3333
		c0.1592,0.0098,0.3174,0.0137,0.4746,0.0137c4.2046,0,7.7305-3.2813,7.979-7.5332c0.0679-1.1594,0.1221-2.3079,0.177-3.4559
		c-1.9404,0.6675-4.3632,1.0282-7.1743,1.0282C149.6765,171.264,148.2349,171.2273,146.5641,171.0066z"/>
	<path d="M72.6764,256.421c-0.5547,6.8071,4.5136,12.7725,11.3183,13.3271c6.8047,0.5542,12.7734-4.5098,13.3281-11.3174
		l4.6663-57.2144c-10.834-0.6362-19.1035-2.8223-24.4267-4.7042L72.6764,256.421z"/>
	<path d="M119.1822,258.4308c0.5547,6.8076,6.5234,11.8716,13.3281,11.3174c6.8047-0.5547,11.8731-6.52,11.3184-13.3271
		l-4.8862-59.9094c-5.3229,1.8821-13.5922,4.0684-24.4266,4.7048L119.1822,258.4308z"/>
	<path d="M119.7325,78.0579c-3.5917,4.7323-9.3135,12.798-10.244,17.2766v103.0523c22.2138-0.2622,34.907-7.4707,34.907-7.4707
		c0-17.6978-3.2099-47.8325-5.6271-68.0168h3.029c1.55,12.9434,3.4077,29.8584,4.5452,45.0464
		c5.8013,0.9279,13.4011-0.1748,13.496-3.5117c0.8403-29.6504-3.0622-51.5889-11.6074-65.4736l0.4551-0.3493l0.1381-1.2596
		l-0.6798-1.4408l0.0482-1.1725l0.0218-1.1236l0.0007-0.0345l2.1897-0.9432l0.2617-1.236l-2.1723-1.2515l0.8564-1.1821
		l-0.0517-1.1927l-1.5023-0.8485l1.3586-1.6128l-1.8221-0.5958l0.052-1.2789l-0.2684-1.1799l-0.9292-0.8371l0.9161-1.9395
		l-1.066-0.7739l-2.2564,0.1025l-0.4437-1.1184l0.6908-2.0305l-0.6635-1.0247l-2.5078,0.5469l-0.6646-0.9757l-0.8427-0.822
		l-0.1083-1.5201l-1.1312-0.5607l-1.2153-0.4598l-0.8143-0.8557l-1.0248-0.6353l0.354-2.127l-1.0861-0.5869l-1.539-0.0623
		l-0.603-1.1163l-0.4071-0.3206C129.4224,70.7421,125.1238,75.3272,119.7325,78.0579z M133.0853,106.816v3h-16.1666v-3H133.0853z
		 M121.7441,172.537l-0.3645-2.9778l16.0469-1.9642l0.3646,2.9777L121.7441,172.537z"/>
	<path d="M67.7106,94.8503l1.3544,0.8632l-1.9398,1.8032l1.9716,0.1531c-9.1179,13.7975-13.2983,36.1772-12.4315,66.7642
		c0.0949,3.3367,7.6941,4.4395,13.4952,3.5118c1.1376-15.1879,2.9955-32.1031,4.5456-45.0465h3.0294
		c-2.4172,20.1843-5.6271,50.3191-5.6271,68.0168c0,0,12.6932,7.2085,34.907,7.4707V95.3335
		c-0.9311-4.4791-6.653-12.5445-10.2443-17.2764c-5.3713-2.721-9.6591-7.282-12.0167-12.8549l-0.3425,0.451l-1.9633-0.429
		l-0.6437,1.0856l-0.2573,1.4932l-1.6851-0.0532l0.6854,2.4413l-1.5492,0.1064l-0.5525,1.1205l-2.1755-0.439l-0.603,1.0883
		l0.1525,1.7465l-0.0665,1.4967l-1.8954-0.05l-0.1599,1.3906l-1.6882,0.2081l0.6777,1.951l-2.0675,0.0211l0.9229,1.9848
		L68.48,80.3977l-0.4766,1.1636l-0.2234,1.2763l-0.0452,1.3188l-0.6555,1.0712l-0.1426,1.246l1.0144,1.4329l-2.4774,0.9043
		l0.5573,1.3386l2.2664,1.1394l-1.3331,1.2644l1.5174,0.8003l0.2855,0.1505L67.7106,94.8503z M99.5853,109.816H83.4187v-3h16.1666
		V109.816z M94.7599,172.537l-16.0469-1.9644l0.3645-2.9777l16.0469,1.9642L94.7599,172.537z"/>
	<circle cx="108.2525" cy="55.299" r="22.5"/>
	<polygon points="170.3438,37.8577 178.2285,42.4104 180.3047,50.1584 182.0742,49.6838 180.4745,43.7053 184.8438,46.2288 
		185.7598,44.6399 181.3887,42.1174 187.3672,40.5159 186.8926,38.7463 179.1445,40.8225 171.2598,36.2698 179.1445,31.717 
		186.8926,33.7932 187.3672,32.0217 181.3887,30.4221 185.7598,27.8987 184.8438,26.3108 180.4727,28.8342 182.0742,22.8557 
		180.3047,22.3811 178.2285,30.1292 170.3438,34.6819 170.3438,25.5784 176.0156,19.9045 174.7188,18.6096 170.3438,22.9846 
		170.3438,17.9397 168.5098,17.9397 168.5098,22.9846 164.1348,18.6096 162.8378,19.9045 168.5098,25.5784 168.5098,34.6819 
		160.6245,30.1311 158.5508,22.3831 156.7792,22.8557 158.3809,28.8342 154.0117,26.3108 153.0956,27.8987 157.4628,30.4221 
		151.4863,32.0237 151.9609,33.7932 159.709,31.717 167.5938,36.2698 159.7065,40.8225 151.9609,38.7463 151.4863,40.5159 
		157.4628,42.1194 153.0938,44.6399 154.0098,46.2288 158.3809,43.7053 156.7792,49.6838 158.5488,50.1584 160.6245,42.4104 
		168.5098,37.8577 168.5098,46.9612 162.8378,52.6331 164.1348,53.9299 168.5098,49.5549 168.5098,54.5989 170.3438,54.5989 
		170.3438,49.5549 174.7188,53.9299 176.0156,52.6331 170.3438,46.9612 	"/>
	<polygon points="58.9152,34.6934 53.2434,29.0215 53.2434,19.918 61.1281,24.4707 63.2043,32.2187 64.9738,31.7441 
		63.3742,25.7656 67.7434,28.2891 68.6594,26.7002 64.2883,24.1777 70.2668,22.5762 69.7922,20.8066 62.0441,22.8828 
		54.1594,18.3301 62.0441,13.7773 69.7922,15.8535 70.2668,14.082 64.2883,12.4824 68.6594,9.959 67.7434,8.3711 63.3723,10.8945 
		64.9738,4.916 63.2043,4.4414 61.1281,12.1895 53.2434,16.7422 53.2434,7.6387 58.9152,1.9648 57.6184,0.6699 53.2434,5.0449 
		53.2434,0 51.4094,0 51.4094,5.0449 47.0344,0.6699 45.7375,1.9648 51.4094,7.6387 51.4094,16.7422 43.5241,12.1914 
		41.4504,4.4434 39.6789,4.916 41.2805,10.8945 36.9113,8.3711 35.9953,9.959 40.3625,12.4824 34.3859,14.084 34.8605,15.8535 
		42.6086,13.7773 50.4934,18.3301 42.6062,22.8828 34.8605,20.8066 34.3859,22.5762 40.3625,24.1797 35.9934,26.7002 
		36.9094,28.2891 41.2805,25.7656 39.6789,31.7441 41.4484,32.2187 43.5241,24.4707 51.4094,19.918 51.4094,29.0215 
		45.7375,34.6934 47.0344,35.9902 51.4094,31.6152 51.4094,36.6592 53.2434,36.6592 53.2434,31.6152 57.6184,35.9902 	"/>
	<polygon points="35.4063,117.8961 35.8809,116.1245 29.9024,114.525 34.2735,112.0015 33.3575,110.4136 28.9865,112.937 
		30.5879,106.9586 28.8184,106.4839 26.7422,114.2321 18.8575,118.7848 18.8575,109.6812 24.5293,104.0073 23.2325,102.7125 
		18.8575,107.0875 18.8575,102.0425 17.0235,102.0425 17.0235,107.0875 12.6485,102.7125 11.3516,104.0073 17.0235,109.6812 
		17.0235,118.7848 9.1382,114.234 7.0645,106.486 5.293,106.9586 6.8946,112.937 2.5254,110.4136 1.6094,112.0015 5.9766,114.525 
		0,116.1266 0.4746,117.8961 8.2227,115.8198 16.1075,120.3727 8.2203,124.9254 0.4746,122.8491 0,124.6188 5.9766,126.2223 
		1.6075,128.7428 2.5235,130.3317 6.8946,127.8082 5.293,133.7866 7.0625,134.2612 9.1382,126.5133 17.0235,121.9606 
		17.0235,131.0641 11.3516,136.736 12.6485,138.0327 17.0235,133.6577 17.0235,138.7018 18.8575,138.7018 18.8575,133.6577 
		23.2325,138.0327 24.5293,136.736 18.8575,131.0641 18.8575,121.9606 26.7422,126.5133 28.8184,134.2612 30.5879,133.7866 
		28.9883,127.8082 33.3575,130.3317 34.2735,128.7428 29.9024,126.2202 35.8809,124.6188 35.4063,122.8491 27.6582,124.9254 
		19.7735,120.3727 27.6582,115.8198 	"/>
	<polygon points="213.3871,148.1881 213.8617,146.4166 207.8832,144.817 212.2543,142.2936 211.3383,140.7057 206.9672,143.2291 
		208.5687,137.2506 206.7992,136.776 204.723,144.524 196.8383,149.0768 196.8383,139.9733 202.5101,134.2994 201.2133,133.0045 
		196.8383,137.3795 196.8383,132.3346 195.0043,132.3346 195.0043,137.3795 190.6293,133.0045 189.3324,134.2994 195.0043,139.9733 
		195.0043,149.0768 187.119,144.526 185.0453,136.778 183.2738,137.2506 184.8754,143.2291 180.5062,140.7057 179.5902,142.2936 
		183.9574,144.817 177.9808,146.4186 178.4554,148.1881 186.2035,146.1119 194.0883,150.6647 186.2011,155.2174 178.4554,153.1412 
		177.9808,154.9108 183.9574,156.5143 179.5883,159.0348 180.5043,160.6237 184.8754,158.1002 183.2738,164.0787 185.0433,164.5533 
		187.119,156.8053 195.0043,152.2526 195.0043,161.3561 189.3324,167.028 190.6293,168.3248 195.0043,163.9498 195.0043,168.9938 
		196.8383,168.9938 196.8383,163.9498 201.2133,168.3248 202.5101,167.028 196.8383,161.3561 196.8383,152.2526 204.723,156.8053 
		206.7992,164.5533 208.5687,164.0787 206.9691,158.1002 211.3383,160.6237 212.2543,159.0348 207.8832,156.5123 213.8617,154.9108 
		213.3871,153.1412 205.639,155.2174 197.7543,150.6647 205.639,146.1119 	"/>
</g>
</svg>
