<?xml version="1.0" encoding="UTF-8"?>
<!DOCTYPE svg PUBLIC "-//W3C//DTD SVG 1.1//EN" "http://www.w3.org/Graphics/SVG/1.1/DTD/svg11.dtd">
<!-- Creator: CorelDRAW -->
<svg xmlns="http://www.w3.org/2000/svg" xml:space="preserve" width="1.70666in" height="1.70666in" version="1.1" style="shape-rendering:geometricPrecision; text-rendering:geometricPrecision; image-rendering:optimizeQuality; fill-rule:evenodd; clip-rule:evenodd"
viewBox="0 0 1706.66 1706.66"
 xmlns:xlink="http://www.w3.org/1999/xlink"
 xmlns:xodm="http://www.corel.com/coreldraw/odm/2003">
 <defs>
  <style type="text/css">
   <![CDATA[
    .fil0 {fill:url(#id0)}
   ]]>
  </style>
  <linearGradient id="id0" gradientUnits="userSpaceOnUse" x1="236.36" y1="843.47" x2="1470.02" y2="843.47">
   <stop offset="0" style="stop-opacity:1; stop-color:#FFB800"/>
   <stop offset="1" style="stop-opacity:1; stop-color:#FF5329"/>
  </linearGradient>
 </defs>
 <g id="Layer_x0020_1">
  <metadata id="CorelCorpID_0Corel-Layer"/>
  <path class="fil0" d="M1253.45 897.19l-800.1 0c-99.65,0 -184.31,-65.37 -213.39,-155.48l222.1 0c90.79,0 90.22,-137.38 0,-137.38l-222.18 0c20.43,-63.78 68.78,-116.09 133.35,-140.73 32.75,-114.54 148.58,-182.37 263.93,-156.89 81.56,-179.6 339.61,-172.97 412.51,9.59 123.89,-47.85 264,23.77 297.48,153 57.35,26.35 99.8,74.66 119.04,132.62l-221.59 0c-90.77,0 -90.21,137.39 0,137.39l223.02 0c-28.33,91.35 -113.63,157.88 -214.18,157.88zm-791.39 -188.19l-426.52 0c-47.39,0 -47.39,-71.96 0,-71.96l426.52 0c47.39,0 47.39,71.96 0,71.96zm200.69 314.65l-426.52 0c-47.38,0 -47.38,-71.96 0,-71.96l426.52 0c47.38,0 47.39,71.96 0,71.96zm200.67 314.67l-426.51 0c-47.38,0 -47.38,-71.96 0,-71.96l426.51 0c47.38,0 47.38,71.96 0,71.96zm807.7 -631.72l-426.52 0c-47.39,0 -47.38,-71.96 0,-71.96l426.52 0c47.39,0 47.39,71.96 0,71.96zm-200.68 314.66l-426.52 0c-47.39,0 -47.37,-71.96 0,-71.96l426.52 0c47.38,0 47.38,71.96 0,71.96zm-333.24 526.96l-426.52 0c-47.38,0 -47.38,-71.96 0,-71.96l426.52 0c47.38,0 47.38,71.96 0,71.96zm68.96 -369.39l-426.52 0c-47.38,0 -47.38,-71.96 0,-71.96l426.5 0c47.38,0 47.38,71.96 0.02,71.96zm464.17 220.9l-426.52 0c-47.39,0 -47.38,-71.96 0,-71.96l426.52 0c47.38,0 47.38,71.96 0,71.96z"/>
 </g>
</svg>
