<?xml version="1.0" encoding="utf-8"?>
<!-- Generator: Adobe Illustrator 22.0.1, SVG Export Plug-In . SVG Version: 6.00 Build 0)  -->
<svg version="1.1" id="Thermometer_Hot" xmlns="http://www.w3.org/2000/svg" xmlns:xlink="http://www.w3.org/1999/xlink" x="0px"
	 y="0px" viewBox="0 0 512 512" style="enable-background:new 0 0 512 512;" xml:space="preserve">
<style type="text/css">
	.st0{fill:#9C9E9F;}
	.st1{fill:#707173;}
	.st2{fill:#ECEDED;}
	.st3{fill:#FFBE00;}
	.st4{fill:#C6C7C8;}
	.st5{fill:#E95D0F;}
	.st6{fill:#FF3264;}
</style>
<title>Icon_Thermometer_Hot</title>
<g>
	<path class="st0" d="M412.5,306V91.1c0-27.6-22.4-50-50-50l0,0c-27.6,0-50,22.4-50,50V306c-41.3,27.6-52.4,83.5-24.8,124.8
		c27.6,41.3,83.5,52.4,124.8,24.8c41.3-27.6,52.4-83.5,24.8-124.8C430.8,321,422.3,312.6,412.5,306z"/>
	<rect x="408.5" y="106.6" class="st1" width="8" height="15"/>
	<path class="st1" d="M362.5,474.9c-51.9,0-94-42.1-94-94c0-30.6,14.9-59.3,40-76.9V91.1c0-29.8,24.2-54,54-54s54,24.2,54,54v3.7
		c0,2.2-1.8,4-4,4s-4-1.8-4-4v-3.7c0-25.4-20.6-46-46-46c-25.4,0-46,20.6-46,46l0,0v217l-1.8,1.2c-39.5,26.4-50.1,79.8-23.7,119.3
		c26.4,39.5,79.8,50.1,119.3,23.7c39.5-26.4,50.1-79.8,23.7-119.3c-6.3-9.4-14.3-17.5-23.7-23.7l-1.8-1.2V133.7c0-2.2,1.8-4,4-4
		s4,1.8,4,4v170.2c42.5,29.8,52.8,88.4,22.9,130.9C421.8,459.9,393.1,474.9,362.5,474.9L362.5,474.9z"/>
	<path class="st2" d="M395.8,331l-13.3-9V91.4h-40V322l-13.3,9c-27.6,18.4-35,55.7-16.6,83.2c18.4,27.6,55.7,35,83.2,16.6
		c27.6-18.4,35-55.7,16.6-83.2C408,341,402.4,335.4,395.8,331z"/>
	<circle class="st3" cx="164.5" cy="153.6" r="62.3"/>
	<rect x="385.2" y="113.4" class="st4" width="15" height="8"/>
	<rect x="385.2" y="156.5" class="st4" width="15" height="8"/>
	<rect x="385.2" y="199.7" class="st4" width="15" height="8"/>
	<rect x="385.2" y="242.9" class="st4" width="15" height="8"/>
	<rect x="385.2" y="286.1" class="st4" width="15" height="8"/>
	<path class="st3" d="M164.5,48.7L164.5,48.7c3.3,0,6,2.7,6,6v16.9c0,3.3-2.7,6-6,6h0c-3.3,0-6-2.7-6-6V54.7
		C158.5,51.3,161.2,48.7,164.5,48.7z"/>
	<path class="st5" d="M164.5,81.1c-5.2,0-9.5-4.3-9.5-9.5V54.7c-0.3-5.2,3.6-9.8,8.9-10.1c5.2-0.3,9.8,3.6,10.1,8.9
		c0,0.4,0,0.8,0,1.2v16.9C174,76.8,169.7,81,164.5,81.1z M164.5,52.2c-1.4,0-2.5,1.1-2.5,2.5v16.9c0.2,1.4,1.4,2.4,2.8,2.2
		c1.1-0.1,2-1,2.2-2.2V54.7C167,53.3,165.9,52.2,164.5,52.2z"/>
	<path class="st3" d="M90.3,79.4L90.3,79.4c2.4-2.4,6.2-2.4,8.5,0l11.9,11.9c2.4,2.4,2.4,6.2,0,8.5h0c-2.4,2.4-6.2,2.4-8.5,0
		L90.3,87.9C87.9,85.6,87.9,81.8,90.3,79.4z"/>
	<path class="st5" d="M106.4,105.1c-2.5,0-4.9-1-6.7-2.8L87.8,90.4c-3.7-3.7-3.7-9.7,0-13.5c3.7-3.7,9.7-3.7,13.5,0l11.9,11.9
		c3.7,3.7,3.7,9.7,0,13.5C111.4,104.1,109,105.1,106.4,105.1z M94.5,81.1c-0.7,0-1.3,0.3-1.8,0.7c-1,1-1,2.6,0,3.6c0,0,0,0,0,0
		l11.9,11.9c1,1,2.6,1,3.6,0c1-1,1-2.6,0-3.6L96.3,81.9C95.8,81.4,95.2,81.1,94.5,81.1L94.5,81.1z"/>
	<path class="st3" d="M59.5,153.7L59.5,153.7c0-3.3,2.7-6,6-6h16.9c3.3,0,6,2.7,6,6v0c0,3.3-2.7,6-6,6H65.5
		C62.2,159.7,59.5,157,59.5,153.7z"/>
	<path class="st5" d="M82.4,163.2H65.5c-5.2-0.3-9.2-4.9-8.9-10.1c0.3-4.8,4.1-8.6,8.9-8.9h16.9c5.2-0.3,9.8,3.6,10.1,8.9
		c0.3,5.2-3.6,9.8-8.9,10.1C83.2,163.2,82.8,163.2,82.4,163.2z M65.5,151.2c-1.4,0.2-2.4,1.4-2.2,2.8c0.1,1.1,1,2,2.2,2.2h16.9
		c1.4-0.2,2.4-1.4,2.2-2.8c-0.1-1.1-1-2-2.2-2.2H65.5z"/>
	<path class="st3" d="M90.3,227.9L90.3,227.9c-2.4-2.4-2.4-6.2,0-8.5l11.9-11.9c2.4-2.4,6.2-2.4,8.5,0h0c2.4,2.4,2.4,6.2,0,8.5
		l-11.9,11.9C96.4,230.3,92.6,230.3,90.3,227.9z"/>
	<path class="st5" d="M94.5,233.2c-5.3,0-9.5-4.3-9.5-9.5c0-2.5,1-4.9,2.8-6.7L99.7,205c3.7-3.7,9.7-3.7,13.4,0c0,0,0,0,0,0l0,0
		c3.7,3.7,3.7,9.7,0,13.5c0,0,0,0,0,0l-11.9,11.9C99.5,232.2,97,233.2,94.5,233.2z M106.4,209.2c-0.7,0-1.3,0.3-1.8,0.7l-11.9,12
		c-1,1-1,2.6,0,3.6c0,0,0,0,0,0c1,1,2.6,1,3.6,0l11.9-11.9c1-1,1-2.6,0-3.5c0,0,0,0,0,0l0,0C107.7,209.5,107.1,209.2,106.4,209.2
		L106.4,209.2z"/>
	<path class="st3" d="M164.5,258.7L164.5,258.7c-3.3,0-6-2.7-6-6v-16.9c0-3.3,2.7-6,6-6h0c3.3,0,6,2.7,6,6v16.9
		C170.5,256,167.8,258.7,164.5,258.7z"/>
	<path class="st5" d="M164.5,262.1c-5.3,0-9.5-4.3-9.5-9.5v-16.8c-0.3-5.2,3.6-9.8,8.9-10.1s9.8,3.6,10.1,8.9c0,0.4,0,0.8,0,1.2
		v16.9C174,257.9,169.7,262.1,164.5,262.1z M164.5,233.3c-1.4,0-2.5,1.1-2.5,2.5v16.9c0.2,1.4,1.4,2.4,2.8,2.2c1.1-0.1,2-1,2.2-2.2
		v-16.9C167,234.4,165.9,233.3,164.5,233.3z"/>
	<path class="st3" d="M238.7,227.9L238.7,227.9c-2.4,2.4-6.2,2.4-8.5,0L218.3,216c-2.4-2.4-2.4-6.2,0-8.5l0,0c2.4-2.4,6.2-2.4,8.5,0
		l11.9,11.9C241.1,221.7,241.1,225.5,238.7,227.9z"/>
	<path class="st5" d="M234.5,233.2c-2.5,0-4.9-1-6.7-2.8l-11.9-11.9c-3.8-3.6-3.9-9.7-0.3-13.5c3.6-3.8,9.7-3.9,13.5-0.3
		c0.1,0.1,0.2,0.2,0.3,0.3l11.9,11.9c3.7,3.7,3.7,9.7,0,13.5C239.4,232.2,237,233.2,234.5,233.2L234.5,233.2z M222.6,209.2
		c-0.7,0-1.3,0.3-1.8,0.7l0,0c-1,1-1,2.6,0,3.5c0,0,0,0,0,0l11.9,11.9c1,1,2.6,1,3.6,0s1-2.6,0-3.6l0,0l-11.9-11.9
		C223.9,209.4,223.2,209.2,222.6,209.2L222.6,209.2z"/>
	<path class="st3" d="M269.5,153.6L269.5,153.6c0,3.3-2.7,6-6,6h-16.9c-3.3,0-6-2.7-6-6l0,0c0-3.3,2.7-6,6-6h16.9
		C266.8,147.6,269.5,150.3,269.5,153.6z"/>
	<path class="st5" d="M263.5,163.2h-16.9c-5.2-0.3-9.2-4.9-8.9-10.1c0.3-4.8,4.1-8.6,8.9-8.9h16.9c5.2,0.3,9.2,4.9,8.9,10.1
		C272.1,159.1,268.3,162.9,263.5,163.2L263.5,163.2z M246.6,151.2c-1.4,0.2-2.4,1.4-2.2,2.8c0.1,1.1,1,2,2.2,2.2h16.9
		c1.4-0.2,2.4-1.4,2.2-2.8c-0.1-1.1-1-2-2.2-2.2H246.6z"/>
	<path class="st3" d="M238.7,79.4L238.7,79.4c2.4,2.4,2.4,6.2,0,8.5l-11.9,11.9c-2.4,2.4-6.2,2.4-8.5,0l0,0c-2.4-2.4-2.4-6.2,0-8.5
		l11.9-11.9C232.6,77.1,236.4,77.1,238.7,79.4z"/>
	<path class="st5" d="M222.6,105.1c-5.3,0-9.5-4.3-9.5-9.5c0-2.5,1-4.9,2.8-6.7l11.9-11.9c3.7-3.7,9.7-3.7,13.5,0s3.7,9.7,0,13.5
		l0,0l-11.9,11.9C227.5,104.1,225.1,105.1,222.6,105.1z M234.5,81.1c-0.7,0-1.3,0.3-1.8,0.7l-11.9,12c-1,1-1,2.6,0,3.6
		c1,1,2.6,1,3.6,0l0,0l11.9-11.9c1-1,1-2.6,0-3.6C235.8,81.4,235.2,81.1,234.5,81.1L234.5,81.1z"/>
	<path class="st5" d="M164.5,219.8c-36.5,0-66.1-29.6-66.1-66.1c0-36.5,29.6-66.1,66.1-66.1c10.9,0,21.6,2.7,31.2,7.8
		c1.7,0.9,2.3,3,1.4,4.7c-0.9,1.7-3,2.3-4.7,1.4c-28.8-15.4-64.5-4.5-79.9,24.2s-4.5,64.5,24.2,79.9s64.5,4.5,79.9-24.2
		c9.4-17.6,9.3-38.8-0.3-56.3c-0.9-1.7-0.3-3.8,1.4-4.8c1.7-0.9,3.8-0.3,4.8,1.4l0,0c17.6,32,5.9,72.2-26.1,89.8
		C186.6,217,175.6,219.8,164.5,219.8L164.5,219.8z"/>
	<path class="st5" d="M211,117.2c-3-3.8-6.4-7.2-10.2-10.2l4.3-5.5c4.3,3.3,8.1,7.1,11.4,11.4L211,117.2z"/>
	
		<rect x="244.6" y="176.1" transform="matrix(0.3827 -0.9239 0.9239 0.3827 -20.788 345.4427)" class="st5" width="7" height="24.3"/>
	
		<rect x="77.4" y="106.9" transform="matrix(0.3827 -0.9239 0.9239 0.3827 -60.0223 148.2282)" class="st5" width="7" height="24.3"/>
	
		<rect x="236" y="115.5" transform="matrix(0.9239 -0.3827 0.3827 0.9239 -26.6671 104.0068)" class="st5" width="24.3" height="7"/>
	
		<rect x="68.8" y="184.8" transform="matrix(0.9239 -0.3827 0.3827 0.9239 -65.8914 45.2917)" class="st5" width="24.3" height="7"/>
	<rect x="187" y="66.6" transform="matrix(0.3827 -0.9239 0.9239 0.3827 58.2009 227.2212)" class="st5" width="24.3" height="7"/>
	
		<rect x="117.7" y="233.7" transform="matrix(0.3827 -0.9239 0.9239 0.3827 -139.0065 266.4384)" class="st5" width="24.3" height="7"/>
	
		<rect x="126.4" y="57.9" transform="matrix(0.9239 -0.3827 0.3827 0.9239 -16.9277 55.0346)" class="st5" width="7" height="24.3"/>
	
		<rect x="195.6" y="225.1" transform="matrix(0.9239 -0.3827 0.3827 0.9239 -75.6322 94.2645)" class="st5" width="7" height="24.3"/>
	<path class="st6" d="M395.8,331l-13.3-9V150.9h-40V322l-13.3,9c-27.6,18.4-35,55.7-16.6,83.2c18.4,27.6,55.7,35,83.2,16.6
		c27.6-18.4,35-55.7,16.6-83.2C408,341,402.4,335.4,395.8,331z"/>
	<path class="st4" d="M362.5,444.9c-35.3,0-64-28.7-64-64c0-21.4,10.7-41.3,28.5-53.2l11.5-7.7V91.4c0-2.2,1.8-4,4-4h40
		c2.2,0,4,1.8,4,4v228.5l11.5,7.7c29.4,19.6,37.3,59.4,17.7,88.8C403.8,434.2,383.9,444.8,362.5,444.9z M346.5,95.4V322
		c0,1.3-0.7,2.6-1.8,3.3l-13.3,8.9c-25.7,17.2-32.7,51.9-15.5,77.7c17.2,25.7,51.9,32.7,77.7,15.5s32.7-51.9,15.5-77.7
		c-4.1-6.1-9.4-11.4-15.5-15.5l0,0l-13.3-8.9c-1.1-0.7-1.8-2-1.8-3.3V95.4L346.5,95.4z"/>
</g>
</svg>
