<?xml version="1.0" encoding="UTF-8" standalone="no"?> <svg xmlns="http://www.w3.org/2000/svg" viewBox="0 0 64 64"><defs><style>.cls-1{fill:#5b3b63;stroke:#5b3b63;opacity:0.1;}.cls-1,.cls-2,.cls-3,.cls-4,.cls-5,.cls-6,.cls-7,.cls-9{stroke-linecap:round;}.cls-1,.cls-8{stroke-miterlimit:10;}.cls-1,.cls-2,.cls-3,.cls-4,.cls-5,.cls-6,.cls-7,.cls-8,.cls-9{stroke-width:2px;}.cls-2,.cls-5,.cls-9{fill:none;}.cls-2{stroke:#3eb51d;}.cls-2,.cls-3,.cls-4,.cls-5,.cls-6,.cls-7,.cls-9{stroke-linejoin:round;}.cls-3{fill:#cfd8dc;stroke:#cfd8dc;}.cls-4{fill:#f57e17;stroke:#f57e17;}.cls-5{stroke:#4f4f4f;}.cls-6{fill:#faf500;stroke:#8d6e63;}.cls-7{fill:#70bdfa;stroke:#70bdfa;}.cls-8{fill:#ff4931;stroke:#ff4931;}.cls-9{stroke:#dda036;}</style></defs><title>hot</title><g id="hot"><circle class="cls-1" cx="17" cy="40" r="6"/><line class="cls-2" x1="33" y1="61" x2="10" y2="61"/><path class="cls-3" d="M23,39H57a0,0,0,0,1,0,0V57.72A3.28,3.28,0,0,1,53.72,61H23a0,0,0,0,1,0,0V39A0,0,0,0,1,23,39Z"/><rect class="cls-1" x="23" y="41" width="34" height="2"/><path class="cls-4" d="M40,14,17.24,37.63A.8.8,0,0,0,17.8,39H62.2a.8.8,0,0,0,.55-1.37Z"/><path class="cls-5" d="M31.52,27.65a1.91,1.91,0,0,0,3.48.09"/><path class="cls-5" d="M48,27.65a1.91,1.91,0,0,1-3.48.09"/><rect class="cls-6" x="42" y="45" width="8" height="16"/><rect class="cls-6" x="29" y="45" width="7" height="7"/><line class="cls-6" x1="38" y1="52" x2="27" y2="52"/><path class="cls-5" d="M34.86,34A7,7,0,0,1,40,32.07,7,7,0,0,1,45.1,34"/><path class="cls-7" d="M18,13V10a3,3,0,0,0-6,0v3Z"/><path class="cls-8" d="M18,30.46V13H12V30.46a10,10,0,1,0,6,0Z"/><circle class="cls-1" cx="15" cy="40" r="6"/><line class="cls-9" x1="6" y1="10" x2="8" y2="10"/><line class="cls-9" x1="6" y1="13" x2="8" y2="13"/><line class="cls-9" x1="6" y1="16" x2="8" y2="16"/><line class="cls-9" x1="6" y1="19" x2="8" y2="19"/><line class="cls-9" x1="6" y1="22" x2="8" y2="22"/><line class="cls-9" x1="6" y1="25" x2="8" y2="25"/></g></svg>